# File created by Blade
# Date/Time:  Thu Sep 25 17:54:10 2014
# Frame Rate: 120.000 fps
#------------------------------------------------------
:FULLY-SPECIFIED
:DEGREES
1776
root -0.358596 32.499114 -6.466040 25.180729 2.110034 -0.022915
Spine -31.560676 21.893119 -11.456605
Head -8.765687 -21.367876 -9.331917
LeftShoulder -2.147328 0.563047 37.180065
LeftArm 63.734902 17.578667 -107.151754
LeftForeArm -10.413517 -0.000000 135.475770
LeftHand -32.951601 -0.000000 33.786781
LeftHandThumb1 -26.253704 0.000000 33.147579
RightShoulder 0.184653 39.248890 -62.044536
RightArm 105.073761 -28.451278 79.909259
RightForeArm -10.748473 0.000000 103.407474
RightHand 3.389845 -0.000000 8.441582
RightHandThumb1 -24.326973 -0.000000 -32.862282
LeftUpLeg -20.265072 3.675152 0.965521
LeftLeg -0.200236 -0.000000 0.000000
LeftFoot -5.638837 -1.808253 -2.041180
LeftToeBase 3.460196 -0.000000 -0.000000
RightUpLeg -19.564633 -8.296770 5.067333
RightLeg -1.615407 -0.000000 0.000000
RightFoot -8.427543 -0.830553 11.141186
RightToeBase 16.148273 -0.000000 -0.000000
1777
root -0.353803 32.498938 -6.464824 25.173925 2.136613 -0.020033
Spine -31.565984 21.889787 -11.443503
Head -8.542073 -21.380158 -9.638372
LeftShoulder -2.237973 0.458605 37.250142
LeftArm 63.800723 17.496909 -107.265094
LeftForeArm -10.868737 -0.000000 135.534648
LeftHand -32.960258 -0.000000 34.178815
LeftHandThumb1 -26.253704 0.000000 33.147579
RightShoulder 0.000838 39.342363 -62.200584
RightArm 105.048293 -28.407811 80.019703
RightForeArm -10.742878 -0.000000 103.565760
RightHand 3.365430 -0.000000 8.418935
RightHandThumb1 -24.326973 -0.000000 -32.862282
LeftUpLeg -20.268996 3.657316 0.964329
LeftLeg -0.180373 -0.000000 0.000000
LeftFoot -5.653665 -1.825055 -2.049503
LeftToeBase 3.469222 -0.000000 -0.000000
RightUpLeg -19.566666 -8.281693 5.051886
RightLeg -1.581293 -0.000000 0.000000
RightFoot -8.508064 -0.905648 11.025601
RightToeBase 16.315368 -0.000000 -0.000000
1778
root -0.349003 32.498087 -6.462351 25.145955 2.175980 -0.026421
Spine -31.546874 21.879190 -11.408034
Head -8.335811 -21.372499 -9.929241
LeftShoulder -2.354408 -0.108434 37.436072
LeftArm 63.347300 17.292093 -107.600718
LeftForeArm -11.220676 -0.000000 135.647649
LeftHand -33.207450 -0.000000 34.854953
LeftHandThumb1 -26.253704 0.000000 33.147579
RightShoulder -0.367980 40.061287 -62.480973
RightArm 104.248359 -28.476274 80.526406
RightForeArm -10.510794 -0.000000 103.731921
RightHand 3.498724 0.000000 8.279690
RightHandThumb1 -24.326973 -0.000000 -32.862282
LeftUpLeg -20.248226 3.619556 0.980373
LeftLeg -0.168716 -0.000000 0.000000
LeftFoot -5.621759 -1.785838 -1.891597
LeftToeBase 3.251103 -0.000000 -0.000000
RightUpLeg -19.539999 -8.302738 5.054870
RightLeg -1.569462 -0.000000 0.000000
RightFoot -8.483910 -0.890692 11.163536
RightToeBase 16.150169 -0.000000 -0.000000
1779
root -0.344333 32.498145 -6.460696 25.137560 2.189262 -0.018505
Spine -31.556208 21.881670 -11.415523
Head -8.132780 -21.389613 -10.189573
LeftShoulder -2.453251 -0.498034 37.585614
LeftArm 63.084970 17.106274 -107.881540
LeftForeArm -11.873440 -0.000000 135.684319
LeftHand -33.195812 0.000000 35.207057
LeftHandThumb1 -26.253704 0.000000 33.147579
RightShoulder -0.653102 40.591357 -62.721548
RightArm 103.659208 -28.498519 80.931015
RightForeArm -10.373134 -0.000000 103.922506
RightHand 3.546564 -0.000000 8.210966
RightHandThumb1 -24.326973 -0.000000 -32.862282
LeftUpLeg -20.244428 3.597629 0.976540
LeftLeg -0.149543 -0.000000 0.000000
LeftFoot -5.685310 -1.837098 -2.063696
LeftToeBase 3.475844 -0.000000 -0.000000
RightUpLeg -19.530766 -8.249286 5.019152
RightLeg -1.551004 -0.000000 0.000000
RightFoot -8.540050 -0.997201 11.083699
RightToeBase 16.242512 -0.000000 -0.000000
1780
root -0.339100 32.498513 -6.458161 25.123269 2.218459 -0.017685
Spine -31.550185 21.872841 -11.399018
Head -7.969714 -21.386385 -10.424583
LeftShoulder -2.580869 -0.755019 37.699073
LeftArm 63.032044 17.036843 -107.997104
LeftForeArm -12.146529 0.000000 135.732998
LeftHand -33.238379 -0.000000 35.621601
LeftHandThumb1 -26.253704 0.000000 33.147579
RightShoulder -0.889255 40.911974 -62.905277
RightArm 103.376283 -28.492032 81.180982
RightForeArm -10.244972 0.000000 104.025110
RightHand 3.711880 -0.000000 8.160973
RightHandThumb1 -24.326973 -0.000000 -32.862282
LeftUpLeg -20.236685 3.555559 0.988818
LeftLeg -0.131968 -0.000000 0.000000
LeftFoot -5.696695 -1.848401 -2.076456
LeftToeBase 3.489336 -0.000000 -0.000000
RightUpLeg -19.516691 -8.263107 5.012799
RightLeg -1.536340 -0.000000 0.000000
RightFoot -8.559098 -1.015923 11.060168
RightToeBase 16.255348 -0.000000 -0.000000
1781
root -0.334395 32.498500 -6.455529 25.107282 2.217490 -0.019386
Spine -31.553664 21.900424 -11.414461
Head -7.821665 -21.357875 -10.619081
LeftShoulder -2.686403 -1.077487 37.848263
LeftArm 62.901904 16.953172 -108.151594
LeftForeArm -12.395131 -0.000000 135.819581
LeftHand -33.301298 -0.000000 35.996487
LeftHandThumb1 -26.253704 0.000000 33.147579
RightShoulder -1.232310 41.587221 -63.154008
RightArm 102.615834 -28.538494 81.673299
RightForeArm -9.985489 -0.000000 104.173096
RightHand 3.791394 -0.000000 8.076049
RightHandThumb1 -24.326973 -0.000000 -32.862282
LeftUpLeg -20.216277 3.540615 0.990817
LeftLeg -0.128033 -0.000000 0.000000
LeftFoot -5.702304 -1.841570 -2.075496
LeftToeBase 3.478965 -0.000000 -0.000000
RightUpLeg -19.502231 -8.246951 4.996861
RightLeg -1.520995 -0.000000 0.000000
RightFoot -8.569421 -1.033248 11.069556
RightToeBase 16.269391 -0.000000 -0.000000
1782
root -0.329200 32.498667 -6.453824 25.130534 2.232666 -0.012511
Spine -31.594604 21.889107 -11.430843
Head -7.647125 -21.326739 -10.852575
LeftShoulder -2.821341 -1.472449 38.017909
LeftArm 62.688965 16.803083 -108.336362
LeftForeArm -12.521844 -0.000000 135.886345
LeftHand -33.305680 -0.000000 36.433595
LeftHandThumb1 -26.253704 0.000000 33.147579
RightShoulder -1.581765 42.294491 -63.396485
RightArm 101.845617 -28.565072 82.171205
RightForeArm -9.740295 0.000000 104.274215
RightHand 3.987560 -0.000000 7.905564
RightHandThumb1 -24.326973 -0.000000 -32.862282
LeftUpLeg -20.251007 3.529959 0.980800
LeftLeg -0.101147 -0.000000 0.000000
LeftFoot -5.714791 -1.872342 -2.110848
LeftToeBase 3.497035 -0.000000 -0.000000
RightUpLeg -19.541298 -8.282714 5.000891
RightLeg -1.484845 -0.000000 0.000000
RightFoot -8.595561 -1.032374 11.078007
RightToeBase 16.276175 -0.000000 -0.000000
1783
root -0.324362 32.498801 -6.451510 25.120347 2.239057 -0.004155
Spine -31.605728 21.906988 -11.466937
Head -7.499155 -21.313984 -10.996430
LeftShoulder -2.883996 -2.673953 38.309370
LeftArm 61.619885 16.336485 -108.831329
LeftForeArm -12.486563 -0.000000 136.053962
LeftHand -33.384068 -0.000000 36.346907
LeftHandThumb1 -26.253704 0.000000 33.147579
RightShoulder -1.871715 42.533993 -63.561622
RightArm 101.587751 -28.533127 82.394045
RightForeArm -9.533712 -0.000000 104.395813
RightHand 3.994082 -0.000000 7.829849
RightHandThumb1 -24.326973 -0.000000 -32.862282
LeftUpLeg -20.242988 3.495926 0.979695
LeftLeg -0.087051 -0.000000 0.000000
LeftFoot -5.719330 -1.865979 -2.111911
LeftToeBase 3.493222 -0.000000 -0.000000
RightUpLeg -19.523935 -8.276003 4.982936
RightLeg -1.488144 -0.000000 0.000000
RightFoot -8.597171 -1.070135 11.037429
RightToeBase 16.209943 -0.000000 -0.000000
1784
root -0.319776 32.498506 -6.448629 25.106742 2.271060 -0.003596
Spine -31.604920 21.886971 -11.445671
Head -7.342817 -21.302336 -11.193539
LeftShoulder -3.014049 -3.034935 38.450028
LeftArm 61.445538 16.153635 -108.976541
LeftForeArm -12.481730 -0.000000 136.127979
LeftHand -33.331023 -0.000000 36.798848
LeftHandThumb1 -26.253704 0.000000 33.147579
RightShoulder -2.133804 42.850500 -63.753200
RightArm 101.302242 -28.499107 82.636677
RightForeArm -9.381828 -0.000000 104.500311
RightHand 3.924471 -0.000000 7.635173
RightHandThumb1 -24.326973 -0.000000 -32.862282
LeftUpLeg -20.235329 3.448604 0.990902
LeftLeg -0.074640 -0.000000 0.000000
LeftFoot -5.680082 -1.812673 -1.947215
LeftToeBase 3.267149 -0.000000 -0.000000
RightUpLeg -19.499570 -8.318257 4.989032
RightLeg -1.501332 -0.000000 0.000000
RightFoot -8.567958 -1.041776 11.139021
RightToeBase 16.121187 -0.000000 -0.000000
1785
root -0.315757 32.499037 -6.446532 25.100822 2.258067 -0.003280
Spine -31.631558 21.915761 -11.463081
Head -7.139667 -21.310991 -11.409234
LeftShoulder -3.132835 -3.189884 38.556497
LeftArm 61.501389 16.054610 -109.004789
LeftForeArm -12.227153 -0.000000 136.209090
LeftHand -33.546916 -0.000000 37.336027
LeftHandThumb1 -26.253704 0.000000 33.147579
RightShoulder -2.220995 42.927493 -63.820732
RightArm 101.301850 -28.402490 82.717080
RightForeArm -9.371860 0.000000 104.608161
RightHand 3.804484 -0.000000 7.583797
RightHandThumb1 -24.326973 -0.000000 -32.862282
LeftUpLeg -20.230982 3.434491 0.989439
LeftLeg -0.057358 -0.000000 0.000000
LeftFoot -5.688122 -1.792557 -1.954919
LeftToeBase 3.251346 -0.000000 -0.000000
RightUpLeg -19.490675 -8.309187 4.977917
RightLeg -1.494560 -0.000000 0.000000
RightFoot -8.615031 -1.079001 11.011335
RightToeBase 16.263393 -0.000000 -0.000000
